<?xml version="1.0" standalone="no"?>
<!DOCTYPE svg PUBLIC "-//W3C//DTD SVG 20010904//EN"
 "http://www.w3.org/TR/2001/REC-SVG-20010904/DTD/svg10.dtd">
<svg version="1.0" xmlns="http://www.w3.org/2000/svg"
 width="448.000000pt" height="448.000000pt" viewBox="0 0 448.000000 448.000000"
 preserveAspectRatio="xMidYMid meet">
<metadata>
Created by potrace 1.15, written by Peter Selinger 2001-2017
</metadata>
<g transform="translate(0.000000,448.000000) scale(0.100000,-0.100000)"
fill="#000000" stroke="none">
<path d="M1995 4468 c-387 -39 -790 -197 -1103 -432 -285 -215 -509 -487 -667
-811 -158 -321 -225 -615 -225 -985 0 -370 67 -664 225 -985 463 -945 1498
-1434 2530 -1193 633 147 1192 596 1485 1193 105 214 169 417 206 655 23 143
26 490 6 625 -59 396 -198 736 -428 1046 -99 133 -320 354 -453 453 -455 337
-1012 491 -1576 434z m390 -478 c238 -23 419 -74 630 -180 158 -79 281 -164
404 -277 79 -73 202 -209 222 -244 6 -13 -16 -38 -107 -118 -63 -55 -119 -101
-123 -101 -5 0 -28 26 -52 58 -23 31 -80 93 -126 138 -372 364 -907 495 -1418
349 -118 -34 -307 -127 -420 -206 -114 -82 -252 -220 -333 -334 -58 -81 -182
-313 -182 -340 0 -5 414 -424 919 -929 l920 -920 88 39 c369 165 646 466 777
843 20 57 36 110 36 118 0 12 -61 14 -380 14 l-380 0 0 170 0 170 566 0 567 0
-7 -92 c-26 -354 -132 -656 -324 -928 -85 -121 -289 -326 -412 -413 -162 -115
-463 -252 -599 -273 l-36 -5 -1049 1050 -1050 1050 13 58 c30 133 128 357 219
498 118 184 289 363 462 488 112 79 338 195 465 236 226 74 476 103 710 81z
m-1040 -2641 l870 -871 -109 6 c-136 8 -322 45 -456 91 -91 32 -297 127 -310
144 -3 3 -18 13 -35 21 -63 32 -234 168 -320 254 -248 249 -412 553 -480 892
-22 107 -45 334 -34 334 2 0 396 -392 874 -871z"/>
</g>
</svg>
